PathFileType	4	(X/Y/Z)	c:/Users/goper/Files/vsCode/490R/osim_files/A06/A06_Fast_06.trc
DataRate	CameraRate	NumFrames	NumMarkers	Units                	OrigDataRate	OrigDataStartFrame	OrigNumFrames
120.00	120.00	5	36	mm	120.0	541	1081
                Frame#	Time	LPSIS			LASIS			LTH1			LTH2			LTH3			LTH4			LLFE			LMFE			LSH1			LSH2			LSH3			LSH4			LLMAL			LMMAL			LCAL			LMTP5			LTOE			LMTP1			RPSIS			RASIS			RTH1			RTH2			RTH3			RTH4			RLFE			RMFE			RSH1			RSH2			RSH3			RSH4			RLMAL			RMMAL			RCAL			RMTP1			RTOE			RMTP5		
		X1	Y1	Z1	X2	Y2	Z2	X3	Y3	Z3	X4	Y4	Z4	X5	Y5	Z5	X6	Y6	Z6	X7	Y7	Z7	X8	Y8	Z8	X9	Y9	Z9	X10	Y10	Z10	X11	Y11	Z11	X12	Y12	Z12	X13	Y13	Z13	X14	Y14	Z14	X15	Y15	Z15	X16	Y16	Z16	X17	Y17	Z17	X18	Y18	Z18	X19	Y19	Z19	X20	Y20	Z20	X21	Y21	Z21	X22	Y22	Z22	X23	Y23	Z23	X24	Y24	Z24	X25	Y25	Z25	X26	Y26	Z26	X27	Y27	Z27	X28	Y28	Z28	X29	Y29	Z29	X30	Y30	Z30	X31	Y31	Z31	X32	Y32	Z32	X33	Y33	Z33	X34	Y34	Z34	X35	Y35	Z35	X36	Y36	Z36

541	4.50000	-1901.25647	996.45508	279.54141	-2085.18994	941.52588	357.96713	-2126.29810	596.59009	405.70389	-2150.38647	562.59650	399.82080	-2184.87134	623.98108	395.46280	-2198.28418	583.68390	391.85706	-2202.16016	505.20438	383.29337	-2205.01855	501.99713	273.77988	-2142.60449	410.66101	393.57327	-2149.60596	365.14407	399.54712	-2204.28491	412.62387	387.83466	-2202.44873	370.07236	391.59970	-2147.38989	112.04996	352.08130	-2173.71509	125.23414	272.39456	-2087.65112	99.25072	294.60345	-2260.83887	60.95689	377.42377	-2302.96582	86.43305	328.71451	-2284.92139	77.53577	288.17673	-1911.74377	1009.03607	148.56931	-2089.75659	961.98456	99.50703	-1922.24951	594.27655	72.34625	-1920.89514	551.74268	72.32349	-1983.79480	586.35571	78.80603	-1974.18030	543.19720	77.22158	-1927.96521	435.97076	102.76237	-1932.18616	440.31741	191.75516	-1942.78625	273.59427	133.09656	-1929.73889	228.16959	130.24643	-1883.09692	285.82693	122.86724	-1876.36487	238.98175	126.77994	-1850.95251	101.05981	126.05242	-1865.38477	106.97347	207.80551	-1793.83179	83.53881	175.21255	-1995.06677	51.77087	200.62181	-2010.06250	63.30278	159.12683	-1981.26514	48.66312	112.90173
542	4.50833	-1911.90820	995.36823	280.18097	-2096.01978	940.06787	357.94788	-2136.43213	594.94476	405.18967	-2160.50488	561.03162	399.30417	-2194.88062	622.42419	394.66974	-2208.49121	582.41516	390.46808	-2212.37036	503.84671	382.51974	-2215.04736	500.31314	273.18665	-2157.39795	406.53342	393.04446	-2167.25684	361.53824	399.26660	-2219.14087	412.48056	387.56958	-2219.84595	369.70728	391.54446	-2180.86011	108.45776	352.65817	-2206.92651	123.35358	273.13635	-2121.43286	91.58727	294.94617	-2297.69482	64.89932	378.83701	-2338.26758	93.13274	330.54886	-2320.52344	82.59817	289.66055	-1922.12463	1008.30621	149.13319	-2099.35645	960.45062	99.72176	-1929.95349	594.47644	72.24968	-1927.31836	551.86340	72.19590	-1989.84985	586.28973	78.00959	-1980.66907	542.52252	77.42931	-1932.81543	435.96896	102.68533	-1937.25403	440.22949	191.79089	-1945.89636	273.46680	132.83879	-1930.59729	227.40747	131.49640	-1886.27026	286.30054	122.83671	-1878.86621	239.65280	126.66931	-1851.26318	101.40937	125.99151	-1865.42590	107.42043	207.93271	-1794.05444	84.03223	175.11304	-1995.32178	51.87869	200.58711	-2010.30664	63.13771	159.14384	-1981.47900	48.60107	112.89742
543	4.51667	-1922.72986	994.05951	280.77179	-2107.40503	938.46735	358.29370	-2146.05957	593.06708	403.76837	-2170.18750	558.78802	398.43222	-2204.51245	620.35077	393.82440	-2218.14551	580.44037	389.19073	-2221.99927	501.95651	381.45282	-2224.71313	498.14761	272.31464	-2172.13501	402.42081	392.49136	-2184.45117	358.06375	398.86957	-2233.16162	411.90753	387.40668	-2237.14966	369.52866	392.13669	-2213.86914	105.57623	353.50897	-2239.36377	122.22800	272.32568	-2155.73218	85.03081	295.42789	-2332.60815	69.42170	380.07507	-2371.90845	100.48088	332.11008	-2355.23706	89.06001	291.16641	-1932.43286	1007.42157	149.74307	-2110.29834	959.41119	99.71461	-1936.57153	594.28455	72.61364	-1933.94861	551.79047	72.43670	-1996.88647	585.42120	78.31381	-1987.19226	541.79547	77.50111	-1938.09143	435.78482	102.86975	-1942.39600	440.06946	191.90218	-1949.25977	273.10172	133.06825	-1932.87512	227.40602	131.55385	-1889.44849	286.82227	122.87835	-1881.47559	240.16559	126.79246	-1851.61865	101.82265	126.00308	-1865.74182	107.76268	207.95204	-1794.30725	84.60439	175.12158	-1995.57800	51.93780	200.59036	-2010.54651	62.87838	158.97714	-1981.69775	48.54279	112.95342
544	4.52500	-1933.59265	992.56598	281.65613	-2118.05200	936.73206	358.05740	-2155.28467	590.62744	402.49713	-2179.39917	556.05627	397.43506	-2213.71484	617.49347	392.99170	-2227.53564	577.89746	388.24139	-2231.39990	499.81540	380.32129	-2234.28174	495.40738	271.35309	-2186.40430	397.96591	391.78488	-2200.50220	355.36533	398.10181	-2247.00366	411.22302	387.19214	-2252.73364	368.78763	391.61032	-2246.26001	103.56489	354.44904	-2270.90649	121.84776	274.11795	-2189.57861	79.67824	296.28235	-2367.28638	75.07973	381.39142	-2404.92114	109.22175	331.97656	-2388.10791	96.02198	292.41727	-1942.83887	1006.29132	150.52887	-2119.86621	957.78070	99.87634	-1943.89783	594.11572	72.99505	-1940.72217	551.70166	72.73880	-2004.15149	584.53503	78.57828	-1993.84473	541.11548	77.76985	-1943.34302	435.69257	103.06937	-1947.75842	439.79694	192.14027	-1951.88269	272.83026	133.12766	-1935.29822	227.40178	131.59961	-1892.66467	287.27643	123.10099	-1884.16858	240.83763	126.96158	-1852.09888	102.33167	126.10539	-1866.32324	108.13531	208.18687	-1794.73560	85.28415	175.32671	-1995.96082	51.91301	200.72188	-2010.85742	62.41537	159.14093	-1981.91077	48.51318	112.99540
545	4.53333	-1944.62939	990.96509	282.48859	-2129.89868	935.04297	358.42514	-2164.05981	587.70038	401.53806	-2188.18481	552.90222	396.38437	-2222.71606	614.32239	392.15622	-2236.03931	574.36902	387.34073	-2240.44263	497.30643	379.14761	-2243.07227	492.76154	270.36295	-2200.26074	394.50095	390.68311	-2216.98120	352.18655	397.56467	-2260.51392	410.49677	386.63937	-2268.31567	368.36328	391.65479	-2277.43945	102.19484	355.29108	-2301.19897	122.46129	275.18100	-2222.64233	75.42171	297.61365	-2399.77319	81.27499	382.37961	-2435.64209	117.95749	333.29089	-2419.97607	104.35547	293.88663	-1953.08972	1005.17596	151.38567	-2130.89307	956.48041	100.28707	-1951.81348	594.45868	72.91008	-1947.60767	551.57812	73.03748	-2011.49365	583.56567	78.80343	-2000.97607	540.48676	78.08559	-1948.56531	435.47214	103.35166	-1953.21448	439.56107	192.41972	-1955.50098	272.68753	133.34183	-1938.26233	227.07973	131.94191	-1896.02271	287.80975	123.33170	-1886.83118	241.33171	127.22788	-1852.29077	102.83309	126.23574	-1867.01099	108.53706	208.48282	-1795.15552	86.05390	175.57671	-1996.35657	51.95570	200.86938	-2011.18787	62.16375	159.16525	-1982.20935	48.61775	112.83588
